<svg xmlns="http://www.w3.org/2000/svg" width="18" height="21" viewBox="0 0 18 21">
    <g fill="none" fill-rule="evenodd">
        <g fill="#000" fill-rule="nonzero">
            <g>
                <g>
                    <g>
                        <path d="M17.441 6.848c-1.579 1.118-2.369 2.462-2.369 4.035 0 1.883.976 3.327 2.928 4.334-.524 1.517-1.283 2.838-2.276 3.962-.993 1.124-1.9 1.687-2.72 1.687-.387 0-.914-.128-1.583-.383l-.321-.124c-.655-.256-1.234-.383-1.738-.383-.476 0-.996.1-1.562.3l-.403.145-.507.207c-.4.158-.804.238-1.21.238-.96 0-2.018-.79-3.177-2.37C.834 16.235 0 13.77 0 11.1c0-1.897.52-3.424 1.562-4.583C2.603 5.36 3.982 4.78 5.7 4.78c.641 0 1.241.118 1.8.352l.786.32c.359.152.648.228.87.228.282 0 .596-.065.94-.196l.528-.207.393-.145c.628-.228 1.32-.341 2.08-.341 1.8 0 3.248.686 4.344 2.058zM13.18 0l.026.375c.004.07.005.131.005.184 0 1.193-.434 2.24-1.303 3.14-.87.9-1.88 1.35-3.031 1.35-.035-.27-.052-.463-.052-.58 0-1.014.404-1.966 1.21-2.855.745-.821 1.599-1.328 2.561-1.52l.385-.066.2-.028z" transform="translate(-1251 -360) translate(920 212) translate(280 135) translate(51 13)"/>
                    </g>
                </g>
            </g>
        </g>
    </g>
</svg>
