<svg xmlns="http://www.w3.org/2000/svg" width="22" height="18" viewBox="0 0 22 18">
    <g fill="none" fill-rule="evenodd">
        <g fill="#1DA1F2" fill-rule="nonzero">
            <g>
                <g>
                    <g>
                        <path d="M6.919 17.876c8.301 0 12.842-6.878 12.842-12.842 0-.196 0-.39-.013-.584.883-.639 1.646-1.43 2.252-2.336-.824.365-1.698.604-2.592.71.942-.564 1.647-1.451 1.984-2.497-.886.526-1.855.897-2.866 1.096-1.4-1.488-3.623-1.852-5.423-.888-1.8.963-2.731 3.015-2.27 5.005-3.629-.182-7.01-1.897-9.302-4.716C.333 2.886.945 5.524 2.93 6.849 2.21 6.828 1.508 6.634.88 6.284v.057c0 2.149 1.515 4 3.621 4.425-.664.181-1.362.208-2.038.077.591 1.839 2.286 3.099 4.217 3.135-1.598 1.256-3.573 1.938-5.606 1.936-.359 0-.717-.023-1.074-.065 2.064 1.324 4.466 2.027 6.919 2.024" transform="translate(-1109 -362) translate(920 212) translate(140 135) translate(49 15)"/>
                    </g>
                </g>
            </g>
        </g>
    </g>
</svg>
