<svg xmlns="http://www.w3.org/2000/svg" width="125" height="24" viewBox="0 0 125 24">
    <defs>
        <linearGradient id="rr83x0ywwa" x1="13.161%" x2="100%" y1="51.842%" y2="48.158%">
            <stop offset="0%" stop-color="#00B1E2"/>
            <stop offset="100%" stop-color="#00D4B7"/>
        </linearGradient>
    </defs>
    <g fill="none" fill-rule="evenodd">
        <g fill="url(#rr83x0ywwa)" transform="translate(-80 -20)">
            <g>
                <path d="M16.354 14.513l-3.94 1.771-.646.922c-.032.046-.094.057-.14.025l-3.927-2.75c-.046-.032-.057-.095-.025-.14l.651-.919.317-4.308c.006-.078.094-.12.158-.075l7.569 5.3c.064.045.054.142-.017.174m-5.584 3.288l-.598.855c-.03.035-.08.048-.122.048l-4.688.002c-.063-.022-.088-.098-.05-.153l2.151-3.067c.032-.045.095-.056.14-.025l3.142 2.2c.046.032.057.095.025.14M14.915 0L9.228 8.122c-.043.062-.028.147.033.19l7.635 5.346c.062.044.148.029.191-.033l6.798-9.71c.075.343.115.699.115 1.063v14.044C24 21.772 21.771 24 19.022 24H4.978C2.228 24 0 21.771 0 19.022V4.978C0 2.228 2.229 0 4.978 0h9.937zm24.85 1.971v14.821h8.267v4.894H33.915V1.97h5.85zm18.586 0v19.714H52.5V1.971h5.85zm9.474 0l8.353 10.997V1.97h5.343v19.715h-4.978l-8.352-10.968v10.968h-5.372V1.97h5.006zm34.279 0v4.5H91.839v3.094h9.309v4.5h-9.309v3.121h10.546v4.5H85.99V1.97h16.114zm13.946 0l.392.005c2.455.058 4.373.666 5.753 1.823l.203.178c1.317 1.207 1.977 2.872 1.977 4.997l-.006.357c-.044 1.294-.328 2.426-.852 3.397l-.148.26c-.563.938-1.333 1.69-2.313 2.258l3.993 6.44h-6.637l-2.615-5.316h-3.093v5.316h-5.85V1.97h9.196zm0 4.5h-3.346v5.4h3.346l.235-.006c.768-.039 1.37-.271 1.804-.698l.125-.132c.395-.46.592-1.09.592-1.892l-.006-.23c-.04-.75-.276-1.335-.71-1.753l-.136-.12c-.468-.379-1.103-.569-1.904-.569z" transform="translate(80 20)"/>
            </g>
        </g>
    </g>
</svg>
