<svg xmlns="http://www.w3.org/2000/svg" width="24" height="24" viewBox="0 0 24 24">
    <g fill="none" fill-rule="evenodd">
        <g fill="#999">
            <g>
                <g>
                    <g>
                        <path d="M6.5 0C10.09 0 13 2.91 13 6.5c0 1.525-.525 2.926-1.404 4.035l4.434 4.435-1.06 1.06-4.435-4.434C9.426 12.476 8.025 13 6.5 13 2.91 13 0 10.09 0 6.5S2.91 0 6.5 0zm0 1.5c-2.761 0-5 2.239-5 5s2.239 5 5 5 5-2.239 5-5-2.239-5-5-5z" transform="translate(-960 -20) translate(320 12) translate(640 8) translate(4 4)"/>
                    </g>
                </g>
            </g>
        </g>
    </g>
</svg>
